<svg data-v-423bf9ae="" xmlns="http://www.w3.org/2000/svg" viewBox="0 0 298.799057514271 181" class="iconAboveSlogan"><!----><!----><!----><g data-v-423bf9ae="" id="374ec31f-ff12-4370-9607-62ff1a240a97" fill="#000000" transform="matrix(4.618937725726786,0,0,4.618937725726786,-6.466510694634479,87.61894058674973)"><path d="M7.18 6.24L7.88 6.24L7.88 13.55L7.21 13.55L7.21 11.98L7.21 11.98Q6.85 12.75 6.13 13.18L6.13 13.18L6.13 13.18Q5.42 13.61 4.45 13.61L4.45 13.61L4.45 13.61Q3.02 13.61 2.21 12.81L2.21 12.81L2.21 12.81Q1.40 12.01 1.40 10.51L1.40 10.51L1.40 6.24L2.10 6.24L2.10 10.46L2.10 10.46Q2.10 11.69 2.73 12.33L2.73 12.33L2.73 12.33Q3.36 12.98 4.51 12.98L4.51 12.98L4.51 12.98Q5.74 12.98 6.46 12.21L6.46 12.21L6.46 12.21Q7.18 11.44 7.18 10.14L7.18 10.14L7.18 6.24ZM11.52 7.84L11.52 7.84Q11.86 7.04 12.57 6.61L12.57 6.61L12.57 6.61Q13.29 6.19 14.31 6.19L14.31 6.19L14.31 6.87L14.14 6.86L14.14 6.86Q12.92 6.86 12.24 7.62L12.24 7.62L12.24 7.62Q11.55 8.39 11.55 9.74L11.55 9.74L11.55 13.55L10.85 13.55L10.85 6.24L11.52 6.24L11.52 7.84ZM25.47 6.19L25.47 6.19Q26.82 6.19 27.60 6.99L27.60 6.99L27.60 6.99Q28.38 7.78 28.38 9.28L28.38 9.28L28.38 13.55L27.68 13.55L27.68 9.34L27.68 9.34Q27.68 8.11 27.08 7.46L27.08 7.46L27.08 7.46Q26.47 6.82 25.40 6.82L25.40 6.82L25.40 6.82Q24.16 6.82 23.44 7.59L23.44 7.59L23.44 7.59Q22.72 8.36 22.72 9.66L22.72 9.66L22.72 13.55L22.02 13.55L22.02 9.34L22.02 9.34Q22.02 8.11 21.42 7.46L21.42 7.46L21.42 7.46Q20.82 6.82 19.74 6.82L19.74 6.82L19.74 6.82Q18.51 6.82 17.79 7.59L17.79 7.59L17.79 7.59Q17.07 8.36 17.07 9.66L17.07 9.66L17.07 13.55L16.37 13.55L16.37 6.24L17.04 6.24L17.04 7.81L17.04 7.81Q17.40 7.04 18.12 6.61L18.12 6.61L18.12 6.61Q18.84 6.19 19.84 6.19L19.84 6.19L19.84 6.19Q20.83 6.19 21.52 6.64L21.52 6.64L21.52 6.64Q22.22 7.08 22.51 7.95L22.51 7.95L22.51 7.95Q22.88 7.14 23.65 6.66L23.65 6.66L23.65 6.66Q24.43 6.19 25.47 6.19L25.47 6.19ZM34.12 13.61L34.12 13.61Q33.08 13.61 32.25 13.13L32.25 13.13L32.25 13.13Q31.42 12.66 30.94 11.81L30.94 11.81L30.94 11.81Q30.46 10.96 30.46 9.90L30.46 9.90L30.46 9.90Q30.46 8.83 30.94 7.99L30.94 7.99L30.94 7.99Q31.42 7.14 32.25 6.66L32.25 6.66L32.25 6.66Q33.08 6.19 34.12 6.19L34.12 6.19L34.12 6.19Q35.15 6.19 35.99 6.66L35.99 6.66L35.99 6.66Q36.82 7.14 37.30 7.99L37.30 7.99L37.30 7.99Q37.77 8.83 37.77 9.90L37.77 9.90L37.77 9.90Q37.77 10.96 37.30 11.81L37.30 11.81L37.30 11.81Q36.82 12.66 35.99 13.13L35.99 13.13L35.99 13.13Q35.15 13.61 34.12 13.61L34.12 13.61ZM34.12 12.98L34.12 12.98Q34.96 12.98 35.62 12.59L35.62 12.59L35.62 12.59Q36.29 12.19 36.67 11.49L36.67 11.49L36.67 11.49Q37.06 10.79 37.06 9.90L37.06 9.90L37.06 9.90Q37.06 9.00 36.67 8.30L36.67 8.30L36.67 8.30Q36.29 7.60 35.62 7.21L35.62 7.21L35.62 7.21Q34.96 6.82 34.12 6.82L34.12 6.82L34.12 6.82Q33.28 6.82 32.61 7.21L32.61 7.21L32.61 7.21Q31.95 7.60 31.56 8.30L31.56 8.30L31.56 8.30Q31.18 9.00 31.18 9.90L31.18 9.90L31.18 9.90Q31.18 10.79 31.56 11.49L31.56 11.49L31.56 11.49Q31.95 12.19 32.61 12.59L32.61 12.59L32.61 12.59Q33.28 12.98 34.12 12.98L34.12 12.98ZM49.04 6.19L49.04 6.19Q50.40 6.19 51.18 6.99L51.18 6.99L51.18 6.99Q51.95 7.78 51.95 9.28L51.95 9.28L51.95 13.55L51.25 13.55L51.25 9.34L51.25 9.34Q51.25 8.11 50.65 7.46L50.65 7.46L50.65 7.46Q50.05 6.82 48.97 6.82L48.97 6.82L48.97 6.82Q47.74 6.82 47.02 7.59L47.02 7.59L47.02 7.59Q46.30 8.36 46.30 9.66L46.30 9.66L46.30 13.55L45.60 13.55L45.60 9.34L45.60 9.34Q45.60 8.11 45.00 7.46L45.00 7.46L45.00 7.46Q44.39 6.82 43.32 6.82L43.32 6.82L43.32 6.82Q42.08 6.82 41.36 7.59L41.36 7.59L41.36 7.59Q40.64 8.36 40.64 9.66L40.64 9.66L40.64 13.55L39.94 13.55L39.94 6.24L40.61 6.24L40.61 7.81L40.61 7.81Q40.98 7.04 41.70 6.61L41.70 6.61L41.70 6.61Q42.42 6.19 43.41 6.19L43.41 6.19L43.41 6.19Q44.41 6.19 45.10 6.64L45.10 6.64L45.10 6.64Q45.79 7.08 46.09 7.95L46.09 7.95L46.09 7.95Q46.45 7.14 47.23 6.66L47.23 6.66L47.23 6.66Q48.01 6.19 49.04 6.19L49.04 6.19ZM54.75 13.61L54.75 13.61Q54.52 13.61 54.34 13.43L54.34 13.43L54.34 13.43Q54.17 13.26 54.17 13.01L54.17 13.01L54.17 13.01Q54.17 12.75 54.34 12.59L54.34 12.59L54.34 12.59Q54.52 12.42 54.75 12.42L54.75 12.42L54.75 12.42Q54.99 12.42 55.17 12.59L55.17 12.59L55.17 12.59Q55.34 12.75 55.34 13.01L55.34 13.01L55.34 13.01Q55.34 13.26 55.17 13.43L55.17 13.43L55.17 13.43Q54.99 13.61 54.75 13.61L54.75 13.61ZM56.43 16.32L56.43 16.32Q55.97 16.32 55.57 16.20L55.57 16.20L55.57 16.20Q55.17 16.07 54.92 15.83L54.92 15.83L55.20 15.32L55.20 15.32Q55.65 15.72 56.39 15.72L56.39 15.72L56.39 15.72Q57.04 15.72 57.37 15.34L57.37 15.34L57.37 15.34Q57.71 14.97 57.71 14.25L57.71 14.25L57.71 6.24L58.41 6.24L58.41 14.28L58.41 14.28Q58.41 15.22 57.89 15.77L57.89 15.77L57.89 15.77Q57.37 16.32 56.43 16.32L56.43 16.32ZM58.06 4.47L58.06 4.47Q57.82 4.47 57.65 4.30L57.65 4.30L57.65 4.30Q57.48 4.14 57.48 3.91L57.48 3.91L57.48 3.91Q57.48 3.67 57.65 3.50L57.65 3.50L57.65 3.50Q57.82 3.33 58.06 3.33L58.06 3.33L58.06 3.33Q58.30 3.33 58.46 3.49L58.46 3.49L58.46 3.49Q58.63 3.65 58.63 3.89L58.63 3.89L58.63 3.89Q58.63 4.13 58.46 4.30L58.46 4.30L58.46 4.30Q58.30 4.47 58.06 4.47L58.06 4.47ZM63.21 13.61L63.21 13.61Q62.33 13.61 61.53 13.34L61.53 13.34L61.53 13.34Q60.73 13.08 60.28 12.67L60.28 12.67L60.61 12.11L60.61 12.11Q61.05 12.49 61.76 12.74L61.76 12.74L61.76 12.74Q62.47 12.99 63.24 12.99L63.24 12.99L63.24 12.99Q64.34 12.99 64.87 12.63L64.87 12.63L64.87 12.63Q65.39 12.26 65.39 11.62L65.39 11.62L65.39 11.62Q65.39 11.16 65.11 10.89L65.11 10.89L65.11 10.89Q64.82 10.63 64.40 10.50L64.40 10.50L64.40 10.50Q63.98 10.37 63.24 10.23L63.24 10.23L63.24 10.23Q62.37 10.08 61.84 9.90L61.84 9.90L61.84 9.90Q61.31 9.72 60.93 9.31L60.93 9.31L60.93 9.31Q60.55 8.90 60.55 8.19L60.55 8.19L60.55 8.19Q60.55 7.32 61.27 6.75L61.27 6.75L61.27 6.75Q61.99 6.19 63.32 6.19L63.32 6.19L63.32 6.19Q64.02 6.19 64.71 6.38L64.71 6.38L64.71 6.38Q65.39 6.58 65.83 6.90L65.83 6.90L65.51 7.46L65.51 7.46Q65.06 7.14 64.48 6.97L64.48 6.97L64.48 6.97Q63.91 6.80 63.31 6.80L63.31 6.80L63.31 6.80Q62.29 6.80 61.77 7.18L61.77 7.18L61.77 7.18Q61.25 7.56 61.25 8.18L61.25 8.18L61.25 8.18Q61.25 8.67 61.54 8.94L61.54 8.94L61.54 8.94Q61.84 9.21 62.27 9.34L62.27 9.34L62.27 9.34Q62.69 9.48 63.46 9.63L63.46 9.63L63.46 9.63Q64.32 9.79 64.84 9.96L64.84 9.96L64.84 9.96Q65.37 10.14 65.73 10.53L65.73 10.53L65.73 10.53Q66.09 10.92 66.09 11.61L66.09 11.61L66.09 11.61Q66.09 12.52 65.34 13.06L65.34 13.06L65.34 13.06Q64.58 13.61 63.21 13.61L63.21 13.61Z"></path></g><defs data-v-423bf9ae=""><linearGradient data-v-423bf9ae="" gradientTransform="rotate(25)" id="9457a3bd-9865-413a-b7dd-57a6cf0dddea" x1="0%" y1="0%" x2="100%" y2="0%"><stop data-v-423bf9ae="" offset="0%" style="stop-color: rgb(40, 139, 88); stop-opacity: 1;"></stop><stop data-v-423bf9ae="" offset="100%" style="stop-color: rgb(21, 34, 241); stop-opacity: 1;"></stop></linearGradient></defs><g data-v-423bf9ae="" id="a4bfbb6d-6d50-4844-99e0-b922bf554052" transform="matrix(1,0,0,1,100,-5)" stroke="none" fill="url(#9457a3bd-9865-413a-b7dd-57a6cf0dddea)"><path d="M84 5H16C9.9 5 5 9.6 5 15.3V67c0 5.7 4.9 10.3 11 10.3h7.2v15.3c0 .9.6 1.8 1.5 2.2.4.2.7.2 1.1.2.6 0 1.2-.2 1.7-.5l22.7-17.2H84c6.1 0 11-4.6 11-10.3V15.3C95 9.6 90.1 5 84 5zm5.9 61.9c0 3-2.6 5.4-5.8 5.4H49.2c-.6 0-1.2.2-1.7.5L28.4 87.3V74.7c0-1.3-1.2-2.4-2.6-2.4H16c-3.2 0-5.8-2.4-5.8-5.4V15.5c0-3 2.6-5.4 5.8-5.4h68.2c3.2 0 5.8 2.4 5.8 5.4v51.4z"></path><path d="M40.9 44.2c0 2-.2 3.5-.7 4.4-.7 1.6-2.3 2.5-4.8 2.5s-4.1-.8-4.8-2.5c-.5-.9-.7-2.4-.7-4.4V26.3h-6.2v17.9c0 3.1.5 5.5 1.4 7.2 1.8 3.2 5.2 4.8 10.3 4.8 5 0 8.5-1.6 10.3-4.8 1-1.7 1.4-4.1 1.4-7.2V26.3h-6.2v17.9zM75.8 53.1c-.1-.5-.2-1.4-.2-2.7v-2c0-2-.3-3.6-.8-4.6-.6-1-1.5-1.8-2.9-2.3 1.6-.6 2.8-1.5 3.5-2.8.7-1.3 1.1-2.7 1.1-4.1 0-1.1-.2-2.2-.5-3.1-.4-.9-.9-1.7-1.5-2.5-.7-.9-1.7-1.6-2.7-2-1.1-.5-2.6-.7-4.6-.8h-14v29.2h6V44h6c1.7 0 2.9.3 3.5.9s.9 1.9 1 3.7v2.7c0 .9.1 1.7.3 2.5.1.4.2.9.4 1.6h6.7v-.7c-.8-.3-1.1-.9-1.3-1.6zm-7.2-14.4c-.7.3-1.6.5-2.9.5h-6.6v-7.8h6.7c1.3 0 2.2.2 2.8.5 1.1.6 1.7 1.8 1.7 3.6 0 1.6-.5 2.7-1.7 3.2z"></path></g><!----><g data-v-423bf9ae="" id="c347ad4b-7d84-44f7-b387-929bfaaf36c2" fill="#000000" transform="matrix(0.46207944257319244,0,0,0.46207944257319244,37.94497422619337,203.23058211560942)"><path d="M4.93 7.81L8.81 2.21L7.53 2.21L4.40 6.72L1.26 2.21L-0.01 2.21L3.88 7.81L3.88 11.48L4.93 11.48ZM18.61 4.37C16.46 4.37 15.13 5.98 15.13 7.98C15.13 9.98 16.46 11.59 18.61 11.59C20.75 11.59 22.08 9.98 22.08 7.98C22.08 5.98 20.75 4.37 18.61 4.37ZM18.61 10.64C17.05 10.64 16.18 9.42 16.18 7.98C16.18 6.54 17.05 5.32 18.61 5.32C20.16 5.32 21.03 6.54 21.03 7.98C21.03 9.42 20.16 10.64 18.61 10.64ZM46.17 7.29C46.17 6.05 47.03 5.32 48.06 5.32C49.04 5.32 49.80 6.10 49.80 7.28L49.80 11.48L50.85 11.48L50.85 7.25C50.85 5.49 49.60 4.37 48.26 4.37C46.87 4.37 46.13 5.31 45.85 5.78C45.40 4.89 44.55 4.37 43.62 4.37C42.49 4.37 41.82 4.98 41.50 5.54L41.50 4.48L40.45 4.48L40.45 11.48L41.50 11.48L41.50 7.29C41.50 6.05 42.35 5.32 43.39 5.32C44.37 5.32 45.12 6.10 45.12 7.28L45.12 11.48L46.17 11.48ZM62.64 4.37C60.49 4.37 59.16 5.98 59.16 7.98C59.16 9.98 60.49 11.59 62.64 11.59C64.78 11.59 66.11 9.98 66.11 7.98C66.11 5.98 64.78 4.37 62.64 4.37ZM62.64 10.64C61.08 10.64 60.21 9.42 60.21 7.98C60.21 6.54 61.08 5.32 62.64 5.32C64.19 5.32 65.06 6.54 65.06 7.98C65.06 9.42 64.19 10.64 62.64 10.64ZM80.22 7.29C80.22 6.05 81.07 5.32 82.11 5.32C83.09 5.32 83.85 6.10 83.85 7.28L83.85 11.48L84.90 11.48L84.90 7.25C84.90 5.49 83.65 4.37 82.31 4.37C80.92 4.37 80.18 5.31 79.90 5.78C79.45 4.89 78.60 4.37 77.67 4.37C76.54 4.37 75.87 4.98 75.54 5.54L75.54 4.48L74.49 4.48L74.49 11.48L75.54 11.48L75.54 7.29C75.54 6.05 76.40 5.32 77.43 5.32C78.41 5.32 79.17 6.10 79.17 7.28L79.17 11.48L80.22 11.48ZM99.37 7.29C99.37 6.05 100.23 5.32 101.26 5.32C102.24 5.32 103.00 6.10 103.00 7.28L103.00 11.48L104.05 11.48L104.05 7.25C104.05 5.49 102.80 4.37 101.46 4.37C100.07 4.37 99.33 5.31 99.05 5.78C98.60 4.89 97.75 4.37 96.82 4.37C95.69 4.37 95.02 4.98 94.70 5.54L94.70 4.48L93.65 4.48L93.65 11.48L94.70 11.48L94.70 7.29C94.70 6.05 95.55 5.32 96.59 5.32C97.57 5.32 98.32 6.10 98.32 7.28L98.32 11.48L99.37 11.48ZM115.75 4.37C113.71 4.37 112.36 5.98 112.36 7.98C112.36 9.98 113.71 11.59 115.75 11.59C116.91 11.59 117.74 11.12 118.26 10.36L118.26 11.48L119.31 11.48L119.31 4.48L118.26 4.48L118.26 5.61C117.74 4.86 116.91 4.37 115.75 4.37ZM115.89 10.64C114.34 10.64 113.41 9.42 113.41 7.98C113.41 6.54 114.34 5.32 115.89 5.32C117.45 5.32 118.31 6.54 118.31 7.98C118.31 9.42 117.45 10.64 115.89 10.64ZM140.55 4.37C138.74 4.37 137.80 5.11 137.80 6.37C137.80 8.93 142.46 7.84 142.46 9.59C142.46 10.54 141.25 10.70 140.67 10.70C139.31 10.70 138.78 10.00 138.71 9.28L137.62 9.28C137.69 10.51 138.71 11.59 140.66 11.59C142.39 11.59 143.51 10.85 143.51 9.49C143.51 6.86 138.85 7.95 138.85 6.27C138.85 5.59 139.43 5.26 140.52 5.26C141.69 5.26 142.14 5.75 142.23 6.36L143.29 6.36C143.16 5.33 142.39 4.37 140.55 4.37ZM154.90 4.37C152.75 4.37 151.42 5.98 151.42 7.98C151.42 9.98 152.75 11.59 154.90 11.59C157.04 11.59 158.37 9.98 158.37 7.98C158.37 5.98 157.04 4.37 154.90 4.37ZM154.90 10.64C153.34 10.64 152.47 9.42 152.47 7.98C152.47 6.54 153.34 5.32 154.90 5.32C156.45 5.32 157.32 6.54 157.32 7.98C157.32 9.42 156.45 10.64 154.90 10.64ZM179.17 4.37C177.37 4.37 176.43 5.11 176.43 6.37C176.43 8.93 181.09 7.84 181.09 9.59C181.09 10.54 179.87 10.70 179.30 10.70C177.94 10.70 177.41 10.00 177.34 9.28L176.25 9.28C176.32 10.51 177.34 11.59 179.28 11.59C181.02 11.59 182.14 10.85 182.14 9.49C182.14 6.86 177.48 7.95 177.48 6.27C177.48 5.59 178.05 5.26 179.14 5.26C180.32 5.26 180.77 5.75 180.85 6.36L181.92 6.36C181.79 5.33 181.02 4.37 179.17 4.37ZM192.29 11.48L192.29 5.40L193.90 5.40L193.90 4.48L192.29 4.48L192.29 1.97L191.24 1.97L191.24 4.48L189.81 4.48L189.81 5.40L191.24 5.40L191.24 11.48ZM208.15 11.48L208.15 4.48L207.10 4.48L207.10 8.51C207.10 9.77 206.15 10.64 204.99 10.64C203.84 10.64 203.03 9.80 203.03 8.53L203.03 4.48L201.98 4.48L201.98 8.55C201.98 10.54 203.34 11.59 204.78 11.59C205.91 11.59 206.60 11.06 207.10 10.39L207.10 11.48ZM220.53 11.59C222.57 11.59 223.92 9.98 223.92 7.98C223.92 5.98 222.57 4.37 220.53 4.37C219.37 4.37 218.54 4.84 218.02 5.60L218.02 4.48L216.97 4.48L216.97 14.25L218.02 14.25L218.02 10.35C218.54 11.10 219.37 11.59 220.53 11.59ZM220.39 5.32C221.94 5.32 222.87 6.54 222.87 7.98C222.87 9.42 221.94 10.64 220.39 10.64C218.83 10.64 217.97 9.42 217.97 7.98C217.97 6.54 218.83 5.32 220.39 5.32ZM232.29 11.48L233.34 11.48L233.34 4.48L232.29 4.48ZM232.25 1.93L232.25 3.30L233.38 3.30L233.38 1.93ZM245.11 4.37C243.07 4.37 241.72 5.98 241.72 7.98C241.72 9.98 243.07 11.59 245.11 11.59C246.27 11.59 247.10 11.12 247.62 10.36L247.62 11.48L248.67 11.48L248.67 1.68L247.62 1.68L247.62 5.61C247.10 4.86 246.27 4.37 245.11 4.37ZM245.25 10.64C243.70 10.64 242.77 9.42 242.77 7.98C242.77 6.54 243.70 5.32 245.25 5.32C246.81 5.32 247.67 6.54 247.67 7.98C247.67 9.42 246.81 10.64 245.25 10.64ZM256.73 13.34L257.68 13.34L258.92 10.36L257.54 10.36ZM279.99 4.37C278.18 4.37 277.24 5.11 277.24 6.37C277.24 8.93 281.90 7.84 281.90 9.59C281.90 10.54 280.69 10.70 280.11 10.70C278.75 10.70 278.22 10.00 278.15 9.28L277.06 9.28C277.13 10.51 278.15 11.59 280.10 11.59C281.83 11.59 282.95 10.85 282.95 9.49C282.95 6.86 278.29 7.95 278.29 6.27C278.29 5.59 278.87 5.26 279.96 5.26C281.13 5.26 281.58 5.75 281.67 6.36L282.73 6.36C282.60 5.33 281.83 4.37 279.99 4.37ZM291.30 1.68L291.30 11.48L292.35 11.48L292.35 7.45C292.35 6.19 293.30 5.32 294.46 5.32C295.61 5.32 296.42 6.16 296.42 7.43L296.42 11.48L297.47 11.48L297.47 7.41C297.47 5.42 296.11 4.37 294.67 4.37C293.54 4.37 292.85 4.90 292.35 5.57L292.35 1.68ZM309.34 10.64C307.93 10.64 307.02 9.65 306.87 8.40L312.73 8.40L312.73 7.98C312.73 5.98 311.40 4.37 309.26 4.37C307.12 4.37 305.79 5.98 305.79 7.98C305.79 9.98 307.19 11.59 309.33 11.59C311.00 11.59 312.03 10.72 312.52 9.46L311.37 9.46C311.00 10.16 310.32 10.64 309.34 10.64ZM309.26 5.32C310.60 5.32 311.44 6.23 311.64 7.42L306.88 7.42C307.08 6.23 307.92 5.32 309.26 5.32ZM337.11 11.48L337.11 4.48L336.06 4.48L336.06 8.51C336.06 9.77 335.10 10.64 333.94 10.64C332.79 10.64 331.98 9.80 331.98 8.53L331.98 4.48L330.93 4.48L330.93 8.55C330.93 10.54 332.29 11.59 333.73 11.59C334.87 11.59 335.55 11.06 336.06 10.39L336.06 11.48ZM348.36 4.37C346.56 4.37 345.62 5.11 345.62 6.37C345.62 8.93 350.28 7.84 350.28 9.59C350.28 10.54 349.06 10.70 348.49 10.70C347.13 10.70 346.60 10.00 346.53 9.28L345.44 9.28C345.51 10.51 346.53 11.59 348.47 11.59C350.21 11.59 351.33 10.85 351.33 9.49C351.33 6.86 346.67 7.95 346.67 6.27C346.67 5.59 347.24 5.26 348.33 5.26C349.51 5.26 349.96 5.75 350.04 6.36L351.11 6.36C350.98 5.33 350.21 4.37 348.36 4.37ZM362.80 10.64C361.38 10.64 360.47 9.65 360.32 8.40L366.18 8.40L366.18 7.98C366.18 5.98 364.85 4.37 362.71 4.37C360.57 4.37 359.24 5.98 359.24 7.98C359.24 9.98 360.64 11.59 362.78 11.59C364.45 11.59 365.48 10.72 365.97 9.46L364.83 9.46C364.45 10.16 363.78 10.64 362.80 10.64ZM362.71 5.32C364.06 5.32 364.90 6.23 365.09 7.42L360.33 7.42C360.53 6.23 361.37 5.32 362.71 5.32ZM376.91 4.37C375.10 4.37 374.16 5.11 374.16 6.37C374.16 8.93 378.83 7.84 378.83 9.59C378.83 10.54 377.61 10.70 377.03 10.70C375.68 10.70 375.14 10.00 375.07 9.28L373.98 9.28C374.05 10.51 375.07 11.59 377.02 11.59C378.76 11.59 379.88 10.85 379.88 9.49C379.88 6.86 375.21 7.95 375.21 6.27C375.21 5.59 375.79 5.26 376.88 5.26C378.06 5.26 378.50 5.75 378.59 6.36L379.65 6.36C379.53 5.33 378.76 4.37 376.91 4.37ZM400.01 11.48L400.01 5.40L401.62 5.40L401.62 4.48L400.01 4.48L400.01 1.97L398.96 1.97L398.96 4.48L397.53 4.48L397.53 5.40L398.96 5.40L398.96 11.48ZM409.77 1.68L409.77 11.48L410.82 11.48L410.82 7.45C410.82 6.19 411.77 5.32 412.93 5.32C414.08 5.32 414.89 6.16 414.89 7.43L414.89 11.48L415.94 11.48L415.94 7.41C415.94 5.42 414.58 4.37 413.14 4.37C412.01 4.37 411.32 4.90 410.82 5.57L410.82 1.68ZM424.69 11.48L425.74 11.48L425.74 4.48L424.69 4.48ZM424.65 1.93L424.65 3.30L425.78 3.30L425.78 1.93ZM437.00 4.37C435.19 4.37 434.25 5.11 434.25 6.37C434.25 8.93 438.91 7.84 438.91 9.59C438.91 10.54 437.70 10.70 437.12 10.70C435.76 10.70 435.23 10.00 435.16 9.28L434.07 9.28C434.14 10.51 435.16 11.59 437.11 11.59C438.84 11.59 439.96 10.85 439.96 9.49C439.96 6.86 435.30 7.95 435.30 6.27C435.30 5.59 435.88 5.26 436.97 5.26C438.14 5.26 438.59 5.75 438.68 6.36L439.74 6.36C439.61 5.33 438.84 4.37 437.00 4.37ZM459.34 1.68L458.29 1.68L458.29 11.48L459.34 11.48ZM468.16 11.48L469.21 11.48L469.21 4.48L468.16 4.48ZM468.12 1.93L468.12 3.30L469.25 3.30L469.25 1.93ZM481.59 4.37C480.42 4.37 479.60 4.86 479.08 5.61L479.08 1.68L478.03 1.68L478.03 11.48L479.08 11.48L479.08 10.36C479.60 11.12 480.42 11.59 481.59 11.59C483.63 11.59 484.97 9.98 484.97 7.98C484.97 5.98 483.63 4.37 481.59 4.37ZM481.45 10.64C479.89 10.64 479.02 9.42 479.02 7.98C479.02 6.54 479.89 5.32 481.45 5.32C483 5.32 483.92 6.54 483.92 7.98C483.92 9.42 483 10.64 481.45 10.64Z"></path></g></svg>