<svg data-v-423bf9ae="" xmlns="http://www.w3.org/2000/svg" viewBox="0 0 298.799057514271 60" class="font"><!----><!----><!----><g data-v-423bf9ae="" id="d561209f-e061-49c5-83d4-e0cc9f9b2b22" fill="black" transform="matrix(4.618937725726786,0,0,4.618937725726786,-6.466510694634479,-15.381061320598903)"><path d="M7.18 6.24L7.88 6.24L7.88 13.55L7.21 13.55L7.21 11.98L7.21 11.98Q6.85 12.75 6.13 13.18L6.13 13.18L6.13 13.18Q5.42 13.61 4.45 13.61L4.45 13.61L4.45 13.61Q3.02 13.61 2.21 12.81L2.21 12.81L2.21 12.81Q1.40 12.01 1.40 10.51L1.40 10.51L1.40 6.24L2.10 6.24L2.10 10.46L2.10 10.46Q2.10 11.69 2.73 12.33L2.73 12.33L2.73 12.33Q3.36 12.98 4.51 12.98L4.51 12.98L4.51 12.98Q5.74 12.98 6.46 12.21L6.46 12.21L6.46 12.21Q7.18 11.44 7.18 10.14L7.18 10.14L7.18 6.24ZM11.52 7.84L11.52 7.84Q11.86 7.04 12.57 6.61L12.57 6.61L12.57 6.61Q13.29 6.19 14.31 6.19L14.31 6.19L14.31 6.87L14.14 6.86L14.14 6.86Q12.92 6.86 12.24 7.62L12.24 7.62L12.24 7.62Q11.55 8.39 11.55 9.74L11.55 9.74L11.55 13.55L10.85 13.55L10.85 6.24L11.52 6.24L11.52 7.84ZM25.47 6.19L25.47 6.19Q26.82 6.19 27.60 6.99L27.60 6.99L27.60 6.99Q28.38 7.78 28.38 9.28L28.38 9.28L28.38 13.55L27.68 13.55L27.68 9.34L27.68 9.34Q27.68 8.11 27.08 7.46L27.08 7.46L27.08 7.46Q26.47 6.82 25.40 6.82L25.40 6.82L25.40 6.82Q24.16 6.82 23.44 7.59L23.44 7.59L23.44 7.59Q22.72 8.36 22.72 9.66L22.72 9.66L22.72 13.55L22.02 13.55L22.02 9.34L22.02 9.34Q22.02 8.11 21.42 7.46L21.42 7.46L21.42 7.46Q20.82 6.82 19.74 6.82L19.74 6.82L19.74 6.82Q18.51 6.82 17.79 7.59L17.79 7.59L17.79 7.59Q17.07 8.36 17.07 9.66L17.07 9.66L17.07 13.55L16.37 13.55L16.37 6.24L17.04 6.24L17.04 7.81L17.04 7.81Q17.40 7.04 18.12 6.61L18.12 6.61L18.12 6.61Q18.84 6.19 19.84 6.19L19.84 6.19L19.84 6.19Q20.83 6.19 21.52 6.64L21.52 6.64L21.52 6.64Q22.22 7.08 22.51 7.95L22.51 7.95L22.51 7.95Q22.88 7.14 23.65 6.66L23.65 6.66L23.65 6.66Q24.43 6.19 25.47 6.19L25.47 6.19ZM34.12 13.61L34.12 13.61Q33.08 13.61 32.25 13.13L32.25 13.13L32.25 13.13Q31.42 12.66 30.94 11.81L30.94 11.81L30.94 11.81Q30.46 10.96 30.46 9.90L30.46 9.90L30.46 9.90Q30.46 8.83 30.94 7.99L30.94 7.99L30.94 7.99Q31.42 7.14 32.25 6.66L32.25 6.66L32.25 6.66Q33.08 6.19 34.12 6.19L34.12 6.19L34.12 6.19Q35.15 6.19 35.99 6.66L35.99 6.66L35.99 6.66Q36.82 7.14 37.30 7.99L37.30 7.99L37.30 7.99Q37.77 8.83 37.77 9.90L37.77 9.90L37.77 9.90Q37.77 10.96 37.30 11.81L37.30 11.81L37.30 11.81Q36.82 12.66 35.99 13.13L35.99 13.13L35.99 13.13Q35.15 13.61 34.12 13.61L34.12 13.61ZM34.12 12.98L34.12 12.98Q34.96 12.98 35.62 12.59L35.62 12.59L35.62 12.59Q36.29 12.19 36.67 11.49L36.67 11.49L36.67 11.49Q37.06 10.79 37.06 9.90L37.06 9.90L37.06 9.90Q37.06 9.00 36.67 8.30L36.67 8.30L36.67 8.30Q36.29 7.60 35.62 7.21L35.62 7.21L35.62 7.21Q34.96 6.82 34.12 6.82L34.12 6.82L34.12 6.82Q33.28 6.82 32.61 7.21L32.61 7.21L32.61 7.21Q31.95 7.60 31.56 8.30L31.56 8.30L31.56 8.30Q31.18 9.00 31.18 9.90L31.18 9.90L31.18 9.90Q31.18 10.79 31.56 11.49L31.56 11.49L31.56 11.49Q31.95 12.19 32.61 12.59L32.61 12.59L32.61 12.59Q33.28 12.98 34.12 12.98L34.12 12.98ZM49.04 6.19L49.04 6.19Q50.40 6.19 51.18 6.99L51.18 6.99L51.18 6.99Q51.95 7.78 51.95 9.28L51.95 9.28L51.95 13.55L51.25 13.55L51.25 9.34L51.25 9.34Q51.25 8.11 50.65 7.46L50.65 7.46L50.65 7.46Q50.05 6.82 48.97 6.82L48.97 6.82L48.97 6.82Q47.74 6.82 47.02 7.59L47.02 7.59L47.02 7.59Q46.30 8.36 46.30 9.66L46.30 9.66L46.30 13.55L45.60 13.55L45.60 9.34L45.60 9.34Q45.60 8.11 45.00 7.46L45.00 7.46L45.00 7.46Q44.39 6.82 43.32 6.82L43.32 6.82L43.32 6.82Q42.08 6.82 41.36 7.59L41.36 7.59L41.36 7.59Q40.64 8.36 40.64 9.66L40.64 9.66L40.64 13.55L39.94 13.55L39.94 6.24L40.61 6.24L40.61 7.81L40.61 7.81Q40.98 7.04 41.70 6.61L41.70 6.61L41.70 6.61Q42.42 6.19 43.41 6.19L43.41 6.19L43.41 6.19Q44.41 6.19 45.10 6.64L45.10 6.64L45.10 6.64Q45.79 7.08 46.09 7.95L46.09 7.95L46.09 7.95Q46.45 7.14 47.23 6.66L47.23 6.66L47.23 6.66Q48.01 6.19 49.04 6.19L49.04 6.19ZM54.75 13.61L54.75 13.61Q54.52 13.61 54.34 13.43L54.34 13.43L54.34 13.43Q54.17 13.26 54.17 13.01L54.17 13.01L54.17 13.01Q54.17 12.75 54.34 12.59L54.34 12.59L54.34 12.59Q54.52 12.42 54.75 12.42L54.75 12.42L54.75 12.42Q54.99 12.42 55.17 12.59L55.17 12.59L55.17 12.59Q55.34 12.75 55.34 13.01L55.34 13.01L55.34 13.01Q55.34 13.26 55.17 13.43L55.17 13.43L55.17 13.43Q54.99 13.61 54.75 13.61L54.75 13.61ZM56.43 16.32L56.43 16.32Q55.97 16.32 55.57 16.20L55.57 16.20L55.57 16.20Q55.17 16.07 54.92 15.83L54.92 15.83L55.20 15.32L55.20 15.32Q55.65 15.72 56.39 15.72L56.39 15.72L56.39 15.72Q57.04 15.72 57.37 15.34L57.37 15.34L57.37 15.34Q57.71 14.97 57.71 14.25L57.71 14.25L57.71 6.24L58.41 6.24L58.41 14.28L58.41 14.28Q58.41 15.22 57.89 15.77L57.89 15.77L57.89 15.77Q57.37 16.32 56.43 16.32L56.43 16.32ZM58.06 4.47L58.06 4.47Q57.82 4.47 57.65 4.30L57.65 4.30L57.65 4.30Q57.48 4.14 57.48 3.91L57.48 3.91L57.48 3.91Q57.48 3.67 57.65 3.50L57.65 3.50L57.65 3.50Q57.82 3.33 58.06 3.33L58.06 3.33L58.06 3.33Q58.30 3.33 58.46 3.49L58.46 3.49L58.46 3.49Q58.63 3.65 58.63 3.89L58.63 3.89L58.63 3.89Q58.63 4.13 58.46 4.30L58.46 4.30L58.46 4.30Q58.30 4.47 58.06 4.47L58.06 4.47ZM63.21 13.61L63.21 13.61Q62.33 13.61 61.53 13.34L61.53 13.34L61.53 13.34Q60.73 13.08 60.28 12.67L60.28 12.67L60.61 12.11L60.61 12.11Q61.05 12.49 61.76 12.74L61.76 12.74L61.76 12.74Q62.47 12.99 63.24 12.99L63.24 12.99L63.24 12.99Q64.34 12.99 64.87 12.63L64.87 12.63L64.87 12.63Q65.39 12.26 65.39 11.62L65.39 11.62L65.39 11.62Q65.39 11.16 65.11 10.89L65.11 10.89L65.11 10.89Q64.82 10.63 64.40 10.50L64.40 10.50L64.40 10.50Q63.98 10.37 63.24 10.23L63.24 10.23L63.24 10.23Q62.37 10.08 61.84 9.90L61.84 9.90L61.84 9.90Q61.31 9.72 60.93 9.31L60.93 9.31L60.93 9.31Q60.55 8.90 60.55 8.19L60.55 8.19L60.55 8.19Q60.55 7.32 61.27 6.75L61.27 6.75L61.27 6.75Q61.99 6.19 63.32 6.19L63.32 6.19L63.32 6.19Q64.02 6.19 64.71 6.38L64.71 6.38L64.71 6.38Q65.39 6.58 65.83 6.90L65.83 6.90L65.51 7.46L65.51 7.46Q65.06 7.14 64.48 6.97L64.48 6.97L64.48 6.97Q63.91 6.80 63.31 6.80L63.31 6.80L63.31 6.80Q62.29 6.80 61.77 7.18L61.77 7.18L61.77 7.18Q61.25 7.56 61.25 8.18L61.25 8.18L61.25 8.18Q61.25 8.67 61.54 8.94L61.54 8.94L61.54 8.94Q61.84 9.21 62.27 9.34L62.27 9.34L62.27 9.34Q62.69 9.48 63.46 9.63L63.46 9.63L63.46 9.63Q64.32 9.79 64.84 9.96L64.84 9.96L64.84 9.96Q65.37 10.14 65.73 10.53L65.73 10.53L65.73 10.53Q66.09 10.92 66.09 11.61L66.09 11.61L66.09 11.61Q66.09 12.52 65.34 13.06L65.34 13.06L65.34 13.06Q64.58 13.61 63.21 13.61L63.21 13.61Z"></path></g><!----><!----></svg>